<svg id="Layer_1" data-name="Layer 1" xmlns="http://www.w3.org/2000/svg" viewBox="0 0 157.44 154.86">
  <defs>
    <style>.cls-1{fill:#231f20;}</style>
  </defs>
  <title>Untitled-2</title>
  <circle class="cls-1" cx="5.76" cy="5.76" r="5.76"/>
  <circle class="cls-1" cx="42.24" cy="5.76" r="5.76"/>
  <circle class="cls-1" cx="5.76" cy="41.58" r="5.76"/>
  <circle class="cls-1" cx="42.24" cy="41.58" r="5.76"/>
  <circle class="cls-1" cx="5.76" cy="77.52" r="5.76"/>

  <circle class="cls-1" cx="42.24" cy="77.52" r="5.76"/>
  <circle class="cls-1" cx="5.76" cy="113.34" r="5.76"/>
  <circle class="cls-1" cx="42.24" cy="113.34" r="5.76"/>
  <circle class="cls-1" cx="78.72" cy="77.52" r="5.76"/>
  <circle class="cls-1" cx="115.2" cy="77.52" r="5.76"/>

  <circle class="cls-1" cx="78.72" cy="113.34" r="5.76"/>
  <circle class="cls-1" cx="115.2" cy="113.34" r="5.76"/>
  <circle class="cls-1" cx="78.72" cy="5.76" r="5.76"/>
  <circle class="cls-1" cx="115.2" cy="5.76" r="5.76"/>
  <circle class="cls-1" cx="78.72" cy="41.58" r="5.76"/>

  <circle class="cls-1" cx="115.2" cy="41.58" r="5.76"/>
  <circle class="cls-1" cx="151.68" cy="77.52" r="5.76"/>
  <circle class="cls-1" cx="151.68" cy="113.34" r="5.76"/>
  <circle class="cls-1" cx="151.68" cy="5.76" r="5.76"/>
  <circle class="cls-1" cx="151.68" cy="41.58" r="5.76"/>

  <circle class="cls-1" cx="5.76" cy="149.1" r="5.76"/>
  <circle class="cls-1" cx="42.18" cy="149.1" r="5.76"/>
  <circle class="cls-1" cx="78.61" cy="149.1" r="5.76"/>
  <circle class="cls-1" cx="115.03" cy="149.1" r="5.76"/>
  <circle class="cls-1" cx="151.46" cy="149.1" r="5.76"/>
</svg>
